<svg xmlns="http://www.w3.org/2000/svg" viewBox="0 0 32 32" width="32" height="32">
  <defs>
    <linearGradient id="primary-gradient" x1="0%" y1="0%" x2="100%" y2="100%">
      <stop offset="0%" stop-color="#6366f1"/>
      <stop offset="50%" stop-color="#8b5cf6"/>
      <stop offset="100%" stop-color="#3b82f6"/>
    </linearGradient>
  </defs>
  <!-- Rounded gradient background container -->
  <rect width="32" height="32" rx="8" fill="url(#primary-gradient)"/>
  <!-- Centered Link Icon (equivalent to bi-link-45deg) -->
  <svg x="6" y="6" width="20" height="20" viewBox="0 0 16 16" fill="#ffffff">
    <path d="M4.715 6.542 3.343 7.914a3 3 0 1 0 4.243 4.243l1.828-1.829A3 3 0 0 0 8.586 5.5L8 6.086a1.001 1.001 0 0 0-.154.199 2 2 0 0 1 .861 3.337L6.88 11.45a2 2 0 1 1-2.83-2.83l.793-.792a4.018 4.018 0 0 1-.128-1.287z"/>
    <path d="M5.712 6.96l.167-.167a1.99 1.99 0 0 1 .896-.518 1.99 1.99 0 0 1 .518-.896l.167-.167A3.004 3.004 0 0 0 6 5.499c-.22.46-.316.963-.288 1.46z"/>
    <path d="M6.586 4.672A3 3 0 0 0 7.414 9.5l.775-.776a2 2 0 0 1-.896-3.346L9.12 3.55a2 2 0 0 1 2.83 2.83l-.793.792c.112.42.155.855.128 1.287l1.372-1.372a3 3 0 0 0-4.243-4.243L6.586 4.672z"/>
    <path d="M10 9.5a2.99 2.99 0 0 0 .288-1.46l-.167.167a1.99 1.99 0 0 1-.896.518 1.99 1.99 0 0 1-.518.896l-.167.167A3.004 3.004 0 0 0 10 9.501z"/>
  </svg>
</svg>
